<svg xmlns="http://www.w3.org/2000/svg" viewBox="0 0 1024 1024" width="1024" height="1024">
  <rect width="1024" height="1024" rx="220" fill="#18181b"/>
  
  <circle cx="512" cy="540" r="340" fill="none" stroke="#27272a" stroke-width="4" stroke-dasharray="16 12"/>
  <circle cx="512" cy="540" r="260" fill="none" stroke="#27272a" stroke-width="2"/>
  
  <g transform="translate(0, 20)">
    <rect x="352" y="140" width="50" height="40" rx="8" fill="none" stroke="#f4f4f5" stroke-width="24" stroke-linejoin="round" transform="rotate(-30 377 160)"/>
    <rect x="622" y="140" width="50" height="40" rx="8" fill="none" stroke="#f4f4f5" stroke-width="24" stroke-linejoin="round" transform="rotate(30 647 160)"/>
    <rect x="472" y="90" width="80" height="50" rx="6" fill="none" stroke="#f4f4f5" stroke-width="24" stroke-linejoin="round"/>
    <path d="M492,140 L492,175 M532,140 L532,175" stroke="#f4f4f5" stroke-width="16" stroke-linecap="round"/>
    <path d="M462,174 L562,174" stroke="#f4f4f5" stroke-width="24" stroke-linecap="round"/>

    <circle cx="512" cy="520" r="300" fill="#202023" stroke="#f4f4f5" stroke-width="28"/>
    
    <path d="M512,245 L512,270 M512,770 L512,795 M237,520 L262,520 M762,520 L787,520" stroke="#a1a1aa" stroke-width="12" stroke-linecap="round"/>
    <path d="M324,332 L342,350 M700,332 L682,350 M324,708 L342,690 M700,708 L682,690" stroke="#71717a" stroke-width="8" stroke-linecap="round"/>

    <path d="M512,520 L660,400" stroke="#ff6200" stroke-width="14" stroke-linecap="round" stroke-linejoin="round"/>
    <circle cx="512" cy="520" r="22" fill="#ff6200"/>
    <circle cx="512" cy="520" r="8" fill="#18181b"/>

    <text x="512" y="590" 
          font-family="system-ui, -apple-system, BlinkMacSystemFont, 'Segoe UI', Roboto, Helvetica, Arial, sans-serif" 
          font-size="190" 
          font-weight="900" 
          letter-spacing="-6"
          fill="#ffffff" 
          text-anchor="middle"
          opacity="0.95"
          style="mix-blend-mode: normal;">TS</text>
  </g>
</svg>
